<svg height="512pt" viewBox="0 0 512.00019 512" width="512pt" xmlns="http://www.w3.org/2000/svg"><g fill-rule="evenodd"><path d="m61.996094 480.195312c5.691406-16.730468 9.214844-45.117187-7.808594-83.5625l-44.1875 105.367188zm0 0" fill="#ffbd50"/><path d="m85.074219 322.984375-14.640625 34.90625c40.773437 74.210937 6.457031 116.058594 6.457031 116.058594l38.613281-16.195313c10.441406-25.070312 15.214844-71.476562-25.085937-147.515625zm0 0" fill="#f1dbc8"/><path d="m128.347656 452.371094 34.492188-14.464844c18.515625-41.515625 39.289062-123.109375-11.957032-200.660156-7.539062-10.082032-13.734374-19.351563-18.347656-27.445313l-3.765625 8.980469-18.582031 44.308594c82.839844 141.105468 18.160156 189.28125 18.160156 189.28125zm0 0" fill="#ffbd50"/><path d="m194.78125 409.496094 28.234375-11.839844s32.472656-24.613281 32.589844-86.074219c-12.851563-10.625-26.523438-22.917969-40.40625-36.441406 9.886719 56.214844-7.039063 107.003906-20.417969 134.355469zm0 0" fill="#f1dbc8"/><path d="m291.410156 311.582031c-.117187 61.460938-32.589844 86.074219-32.589844 86.074219l104.660157-43.890625c-12.039063 1.144531-39.402344-15.171875-72.070313-42.183594zm0 0" fill="#ffbd50"/><path d="m210.207031 197.226562c-18.492187-14.722656-34.914062-25.644531-47.316406-31.445312 4.632813 9.910156 12.53125 22.382812 23.03125 36.425781 14.800781 19.796875 34.75 42.707031 57.960937 65.910157 16.3125 16.316406 32.480469 31.023437 47.523438 43.464843 21.535156 17.800781 40.757812 30.957031 54.8125 37.53125-6.257812-13.382812-18.476562-31.445312-35.003906-51.734375-12.953125-15.90625-28.550782-33.171875-45.988282-50.605468-19.058593-19.0625-37.921874-35.929688-55.019531-49.546876zm0 0" fill="#c78f70"/><path d="m218.5 65.621094c0 11.046875-8.953125 20-20 20-11.042969 0-20-8.953125-20-20s8.957031-20 20-20c11.046875 0 20 8.953125 20 20zm0 0" fill="#f13d7c"/><path d="m409.96875 30c0 11.046875-8.953125 20-20 20s-20-8.953125-20-20c0-11.042969 8.953125-20 20-20s20 8.957031 20 20zm0 0" fill="#bdd377"/><path d="m472.5 203.617188c0 11.046874-8.953125 20-20 20s-20-8.953126-20-20c0-11.042969 8.953125-20 20-20s20 8.957031 20 20zm0 0" fill="#ff916c"/><path d="m360.164062 301.53125c-4.222656-6.261719-9.023437-12.855469-14.300781-19.679688 19.152344-8.871093 38.222657-15.34375 56.953125-19.304687 5.402344-1.144531 8.855469-6.453125 7.710938-11.855469-1.140625-5.402344-6.441406-8.855468-11.851563-7.710937-21.683593 4.585937-43.703125 12.257812-65.730469 22.863281-12.300781-14.671875-26.386718-30.015625-41.582031-45.210938-16.144531-16.144531-32.460937-31.046874-47.960937-43.875 13.414062-16.960937 24.359375-35.949218 32.644531-56.730468 12.910156-32.398438 19.457031-69.417969 19.457031-110.027344 0-5.523438-4.476562-10-9.996094-10-5.523437 0-10 4.476562-10 10 0 62.570312-16.046874 114.359375-47.730468 154.320312-5.976563-4.5625-11.773438-8.753906-17.3125-12.488281-29.636719-19.988281-47.285156-24.671875-57.152344-15.160156-.070312.066406-.144531.128906-.210938.195313-.011718.011718-.019531.019531-.03125.027343-.003906.007813-.011718.015625-.015624.019531-2.527344 2.53125-4.085938 5.597657-4.679688 9.25l-147.597656 351.96875c-1.570313 3.742188-.7187502 8.066407 2.152344 10.9375 1.914062 1.914063 4.472656 2.929688 7.074218 2.929688 1.300782 0 2.613282-.253906 3.863282-.777344l172.742187-72.441406c.027344-.011719.054687-.023438.085937-.035156l75.957032-31.851563c.039062-.019531.074218-.03125.113281-.046875l103.074219-43.226562c3.335937-.539063 6.171875-1.902344 8.566406-4.0625.175781-.144532.339844-.296875.5-.453125.066406-.0625.132812-.113281.195312-.175781.011719-.011719.019532-.023438.027344-.03125.070313-.066407.132813-.140626.199219-.214844 9.511719-9.863282 4.824219-27.515625-15.164063-57.152344zm-154.0625 107.386719c6.855469-15.035157 13.847657-34.773438 18.003907-56.808594 4.640625-24.613281 6.683593-56.984375-1.90625-91.9375 4.738281 5.003906 9.609375 10.019531 14.609375 15.019531 14.957031 14.957032 30.054687 28.835938 44.519531 41-1.433594 47.210938-23.089844 68.726563-27.753906 72.820313zm-51.132812 21.445312c2.054688-5.191406 3.863281-11.097656 5.175781-17.796875 8.003907-40.851562-5.0625-91.363281-38.8125-150.1875l10.816407-25.800781c8.566406 10.304687 18.324218 24.890625 22.277343 34.085937 1.625 3.789063 5.3125 6.054688 9.191407 6.054688 1.316406 0 2.65625-.261719 3.941406-.8125 5.074218-2.183594 7.421875-8.0625 5.238281-13.136719-5.863281-13.644531-20.730469-34.875-32.105469-46.558593l16.535156-39.425782c2.894532 5.308594 6.480469 11.128906 10.785157 17.507813 2.960937 4.390625 6.203125 8.945312 9.695312 13.625 34.207031 51.902343 33.433594 105.035156 26.746094 140.480469-7.113281 37.707031-22.339844 65.3125-27.929687 72.925781zm-43.507812-144.449219c31.09375 58.953126 33.425781 98.011719 29.390624 121.007813-4.03125 22.984375-14.726562 34.0625-17.765624 36.8125l-26.351563 11.050781c5.855469-20.855468 7.398437-53.957031-15.242187-97.410156zm188.773437 45.46875c6.035156 4.605469 11.886719 8.839844 17.472656 12.609376 6.382813 4.300781 12.199219 7.886718 17.511719 10.78125l-47.175781 19.78125c5.355469-11.074219 10.082031-25.347657 12.191406-43.171876zm-85.691406-152c-.703125.722657-1.394531 1.453126-2.109375 2.164063-3.902344 3.90625-3.902344 10.238281 0 14.144531 1.953125 1.953125 4.515625 2.929688 7.074218 2.929688 2.558594 0 5.117188-.976563 7.070313-2.929688 1.253906-1.253906 2.492187-2.527344 3.714844-3.8125 15.167969 12.539063 31.207031 27.175782 46.929687 42.898438 13.519532 13.519531 26.230469 27.269531 37.503906 40.503906-1.808593 1.003906-3.613281 2.023438-5.417968 3.066406-4.78125 2.761719-6.421875 8.875-3.660156 13.65625 1.851562 3.210938 5.214843 5.003906 8.671874 5.003906 1.695313 0 3.414063-.433593 4.988282-1.34375 2.777344-1.601562 5.554687-3.140624 8.332031-4.644531 4.34375 5.519531 8.375 10.882813 12.019531 16.023438 14.894532 21.023437 18.90625 31.757812 19.964844 36.40625-4.652344-1.058594-15.386719-5.070313-36.410156-19.964844-21.738282-15.402344-47.402344-37.578125-72.265625-62.4375-24.859375-24.859375-47.035157-50.523437-62.4375-72.265625-14.894531-21.023438-18.90625-31.757812-19.964844-36.40625 4.652344 1.058594 15.386719 5.070312 36.410156 19.964844 3.117188 2.207031 6.320313 4.570312 9.585938 7.042968zm-143.539063 203.003907c8.28125 20.761719 11.152344 40.648437 8.3125 58.371093-2.089844 13.015626-6.730468 21.566407-8.960937 25.085938l-41.679688 17.480469zm0 0"/><path d="m180.882812 288.53125c-2.265624-5.035156-8.183593-7.28125-13.222656-5.015625-4.878906 2.195313-7.140625 7.824219-5.214844 12.753906 1.515626 3.960938 5.300782 6.429688 9.339844 6.429688 1.097656 0 2.210938-.183594 3.304688-.566407 5.210937-1.824218 7.960937-7.527343 6.136718-12.742187-.097656-.269531-.226562-.597656-.34375-.859375zm0 0"/><path d="m373.433594 154.691406c1.953125 1.953125 4.511718 2.929688 7.070312 2.929688s5.117188-.976563 7.070313-2.929688c22.34375-22.34375 58.542969-32.582031 84.972656-34.714844 5.503906-.445312 9.605469-5.269531 9.164063-10.773437-.445313-5.503906-5.257813-9.589844-10.773438-9.164063-29.972656 2.421876-71.328125 14.332032-97.503906 40.511719-3.90625 3.902344-3.90625 10.234375 0 14.140625zm0 0"/><path d="m504.589844 101.960938c-.285156-.074219-.570313-.148438-.863282-.222657-5.359374-1.335937-10.785156 1.929688-12.121093 7.289063-1.332031 5.359375 1.929687 10.785156 7.289062 12.117187l.511719.132813c.867188.234375 1.738281.347656 2.597656.347656 4.414063 0 8.453125-2.945312 9.652344-7.414062 1.429688-5.332032-1.730469-10.816407-7.066406-12.25zm0 0"/><path d="m73.503906 83.621094h10v10c0 5.519531 4.476563 10 10 10 5.523438 0 10-4.480469 10-10v-10h10c5.523438 0 10-4.480469 10-10 0-5.523438-4.476562-10-10-10h-10v-10c0-5.523438-4.476562-10-10-10-5.523437 0-10 4.476562-10 10v10h-10c-5.523437 0-10 4.476562-10 10 0 5.523437 4.476563 10 10 10zm0 0"/><path d="m307.5 180.621094h10.003906v9.996094c0 5.523437 4.476563 10 10 10 5.523438 0 10-4.476563 10-10v-9.996094h9.996094c5.523438 0 10-4.480469 10-10 0-5.523438-4.476562-10-10-10h-9.996094v-10.003906c0-5.519532-4.476562-10-10-10-5.523437 0-10 4.480468-10 10v10.003906h-10.003906c-5.519531 0-10 4.476562-10 10 0 5.523437 4.480469 10 10 10zm0 0"/><path d="m446.5 417.617188h-10v-10c0-5.519532-4.476562-10-10-10-5.519531 0-10 4.480468-10 10v10h-10c-5.519531 0-10 4.480468-10 10 0 5.523437 4.480469 10 10 10h10v10c0 5.523437 4.480469 10 10 10 5.523438 0 10-4.476563 10-10v-10h10c5.523438 0 10-4.476563 10-10 0-5.519532-4.476562-10-10-10zm0 0"/><path d="m389.96875 60c16.542969 0 30-13.457031 30-30 0-16.539062-13.457031-30-30-30s-30 13.460938-30 30c0 16.542969 13.457031 30 30 30zm0-40c5.515625 0 10 4.488281 10 10 0 5.515625-4.484375 10-10 10-5.511719 0-10-4.484375-10-10 0-5.511719 4.488281-10 10-10zm0 0"/><path d="m452.5 173.617188c-16.542969 0-30 13.460937-30 30 0 16.542968 13.457031 30 30 30s30-13.457032 30-30c0-16.539063-13.457031-30-30-30zm0 40c-5.511719 0-10-4.484376-10-10 0-5.511719 4.488281-10 10-10 5.515625 0 10 4.488281 10 10 0 5.515624-4.484375 10-10 10zm0 0"/><path d="m198.503906 95.621094c16.539063 0 30-13.460938 30-30 0-16.542969-13.460937-30-30-30-16.542968 0-30 13.457031-30 30 0 16.539062 13.457032 30 30 30zm0-40c5.511719 0 10 4.484375 10 10 0 5.511718-4.488281 10-10 10-5.515625 0-10-4.488282-10-10 0-5.515625 4.484375-10 10-10zm0 0"/><path d="m449.191406 294.058594c0-5.507813-4.492187-10-10-10-5.507812 0-10 4.492187-10 10 0 5.507812 4.492188 10 10 10 5.507813 0 10-4.492188 10-10zm0 0"/><path d="m335.191406 95.058594c5.507813 0 9.996094-4.492188 9.996094-10 0-5.507813-4.488281-10-9.996094-10-5.511718 0-10 4.492187-10 10 0 5.507812 4.488282 10 10 10zm0 0"/><path d="m469.1875 359.054688c-5.507812 0-10 4.496093-10 10.003906 0 5.507812 4.492188 10 10 10s10-4.492188 10-10c0-5.507813-4.492188-10.003906-10-10.003906zm0 0"/><path d="m139.191406 30c5.507813 0 10-4.492188 10-10s-4.492187-10-10-10c-5.507812 0-10 4.492188-10 10s4.492188 10 10 10zm0 0"/></g></svg>