<svg xmlns="http://www.w3.org/2000/svg" viewBox="0 0 40 85" x="0px" y="0px"><path d="M437,1136 L437,1138.5 C437,1141.53857 439.465797,1144 442.50662,1144 L457.49338,1144 C460.532744,1144 463,1141.53549 463,1138.5 L463,1136 L464.009821,1136 C467.318812,1136 470,1138.6915 470,1142.00349 L470,1197.99651 C470,1201.31099 467.320491,1204 464.009821,1204 L435.990179,1204 C432.681188,1204 430,1201.3085 430,1197.99651 L430,1142.00349 C430,1138.68901 432.679509,1136 435.990179,1136 L437,1136 Z M450,1174 C451.104569,1174 452,1173.10457 452,1172 C452,1170.89543 451.104569,1170 450,1170 C448.895431,1170 448,1170.89543 448,1172 C448,1173.10457 448.895431,1174 450,1174 Z M457,1174 C458.104569,1174 459,1173.10457 459,1172 C459,1170.89543 458.104569,1170 457,1170 C455.895431,1170 455,1170.89543 455,1172 C455,1173.10457 455.895431,1174 457,1174 Z M443,1174 C444.104569,1174 445,1173.10457 445,1172 C445,1170.89543 444.104569,1170 443,1170 C441.895431,1170 441,1170.89543 441,1172 C441,1173.10457 441.895431,1174 443,1174 Z M441,1136 L459,1136 L459,1138.5 C459,1139.32535 458.324601,1140 457.49338,1140 L442.50662,1140 C441.673351,1140 441,1139.32784 441,1138.5 L441,1136 Z" transform="translate(-430 -1136)"/><text x="0" y="83" fill="#000000" font-size="5px" font-weight="bold" font-family="'Helvetica Neue', Helvetica, Arial-Unicode, Arial, Sans-serif">Created by Andrejs Kirma</text><text x="0" y="88" fill="#000000" font-size="5px" font-weight="bold" font-family="'Helvetica Neue', Helvetica, Arial-Unicode, Arial, Sans-serif">from the Noun Project</text></svg>